<?xml version="1.0" encoding="utf-8" ?><svg xmlns="http://www.w3.org/2000/svg" xmlns:xlink="http://www.w3.org/1999/xlink" width="1024" height="1024" viewBox="0 0 1024 1024"><path fill="#1D1D1D" transform="scale(2 2)" d="M357.942 85.8842C372.777 80.9342 389.313 101.727 372.91 119.187C374.183 124.231 375.532 129.697 376.626 134.752C392.921 140.34 405.463 157.45 407.314 174.211C409.178 191.099 402.888 202.002 392.896 214.471C394.913 218.865 395.546 223.722 397.022 228.436C408.208 233.351 411.69 247.188 402.82 256.09C397.321 261.608 390.896 260.754 383.711 260.678C382.611 288.712 393.319 326.075 409.771 349.475C427.376 353.786 432.506 368.801 429.188 384.926C447.894 388.872 451.277 425.082 433.762 425.018L179.529 424.987C161.359 424.987 155.178 425.402 155.22 405.225L155.252 394.712L88.2083 394.729C85.3301 394.73 81.9078 394.924 79.0923 394.538C61.8903 392.184 64.813 371.711 78.0574 361.932C74.8925 348.794 81.8537 337.154 95.0378 333.986C96.6012 330.407 99.7467 325.524 101.65 321.459C110.015 303.597 111.641 289.97 111.619 270.757C92.7124 270.86 89.5211 250.687 102.947 244.494C103.464 240.607 104.043 237.511 104.8 233.649L104.155 232.958C81.2703 208.296 100.999 170.103 133.598 171.564C165.92 173.013 180.604 214.07 156.426 235.156C157.296 238.046 157.856 241.505 158.383 244.494C168.835 247.796 170.607 259.712 163.031 267.415C158.619 271.046 155.752 270.957 150.475 270.757C150.312 301.447 155.775 307.722 165.702 333.237C172.351 334.943 174.439 336.252 179.222 341.15C184.163 336.538 185.576 336.467 191.578 333.237C193.405 330.397 196.293 323.645 197.896 320.213C209.088 296.253 213.919 277.144 213.999 251.208C212.281 251.226 209.988 251.119 208.345 251.252C188.479 252.863 182.522 224.488 202.763 219.505C202.445 216.339 202.139 212.734 201.129 209.656C196.966 196.97 176.968 188.927 176.582 177.239C176.182 165.12 191.342 167.494 199.057 167.525C205.036 156.351 211.396 151.082 222.754 145.822L222.754 134.752C214.977 134.847 207.278 135.327 207.29 124.664C207.306 109.362 204.587 104.589 222.754 104.749C222.655 90.136 221.897 85.8081 238.539 85.8133C253.7 85.8181 252.325 93.126 252.238 104.749C257.723 104.645 268.174 104.083 267.055 112.914C265.127 128.134 272.623 134.896 252.238 134.752C251.92 138.632 252.071 141.951 252.238 145.822C263.352 149.357 270.558 157.79 276.149 167.525C285.085 166.967 299.563 165.894 298.908 179.216C298.513 190.372 273.82 194.153 272.073 219.505L273.152 219.745C284.739 222.274 286.849 239.246 280.092 247.246C275.369 252.837 267.023 251.201 260.249 251.208C260.065 273.208 264.803 294.416 273.234 314.691C275.769 320.787 279.89 328.093 282.074 333.744L282.165 333.986C292.495 339.018 297.845 341.808 301.735 353.92C306.202 351.07 308.056 350.492 312.767 348.323C328.346 326.744 337.037 285.445 336.224 259.879C309.961 262.841 307.573 236.191 323.767 228.436C324.041 225.664 326.383 217.376 327.35 214.471C301.417 189.615 309.946 146.744 345.035 134.752C345.942 129.614 346.899 123.93 349.035 119.187C335.593 110.643 341.526 86.6597 357.942 85.8842ZM181.711 372.758C176.095 381.774 170.991 375.722 165.702 393.519C170.083 393.303 174.339 393.478 178.717 393.509L263.625 393.519L279.682 393.519C283.23 388.887 285.007 386.454 290.384 383.737C287.865 367.896 300.74 357.932 285.647 346.929C279.34 342.332 275.721 343.187 268.307 343.228L214.129 343.242C208.446 343.241 201.092 343.025 195.511 343.249C185.868 345.96 178.816 356.335 181.071 366.226C181.577 368.446 181.912 370.476 181.711 372.758ZM200.757 232.669C200.631 240.367 201.828 241.518 209.359 241.544L269.894 241.536C275.426 240.712 273.983 233.051 272.073 229.391L228.679 229.387C221.173 229.384 211.759 229.1 204.367 229.391C202.377 230.012 201.813 230.85 200.757 232.669ZM217.324 114.706C217.308 117.965 217.221 121.567 217.324 124.798C235.67 124.651 232.769 125.72 232.747 143.504C235.874 143.414 239.13 143.404 242.259 143.504C245.768 128.423 233.835 125.228 257.234 124.798L257.234 114.706C239.33 114.498 242.259 113.291 242.259 96.1453C239.234 96.154 235.708 96.0465 232.747 96.1453C232.752 99.734 233.066 108.23 232.747 111.231C228.949 116.446 223.005 114.586 217.324 114.706ZM223.753 251.208L223.71 251.708C223.497 254.414 223.849 257.491 223.758 260.25C222.917 285.879 214.292 310.563 202.763 333.237L250.06 333.237C256.777 333.25 264.049 333.395 270.719 333.237C268.384 327.359 265.126 321.6 262.844 315.805C254.512 294.634 249.656 273.906 250.06 251.208C241.337 251.185 232.462 251.081 223.753 251.208ZM273.688 414.744C277.869 414.754 276.425 414.45 276.203 410.794C276.057 408.381 276.115 405.842 276.149 403.416L168.833 403.416C167.797 403.414 166.735 403.399 165.702 403.416C165.647 410.17 163.462 414.661 170.502 414.707L273.688 414.744ZM186.529 177.36C196.74 192.677 212.373 193.32 212.513 219.505L243.125 219.505L262.008 219.505C264.726 191.177 276.272 193.698 289.457 177.36C283.465 177.17 277.383 177.651 271.43 177.19C265.471 176.729 265.793 152.872 232.747 153.752C208.71 159.152 210.805 173.485 203.53 177.36C197.95 177.585 192.142 177.232 186.529 177.36Z"/><path fill="#FEC33C" transform="scale(2 2)" d="M370.405 358.895L392.178 358.879C399.784 358.848 407.415 357.777 413.747 362.917C426.316 373.121 414.432 387.483 419.995 391.539C422.896 393.654 426.372 394.062 429.19 396.594C433.02 400.034 439.214 414.392 432.055 414.56C428.625 414.73 425.223 414.742 421.788 414.748L351.625 414.744L286.855 414.744C283.842 389.917 302.737 394.968 301.251 386.937C295.991 358.503 312.924 358.891 335.085 358.888L370.405 358.895Z"/><path fill="#FEC33C" transform="scale(2 2)" d="M357.942 142.604C388.915 139.579 410.579 178.683 388.058 203.543C386.343 205.436 383.353 207.813 381.828 209.615C380.671 210.983 385.961 223.775 386.444 228.436L362.554 228.436L333.995 228.436C335.11 222.784 338.012 216.584 338.502 211.2C338.659 209.477 332.026 204.572 330.492 202.504C311.45 177.96 327.079 145.672 357.942 142.604Z"/><path fill="#FEC33C" transform="scale(2 2)" d="M349.035 259.879L372.91 259.879C372.387 294.192 382.287 319 397.022 348.323L372.91 348.323L324.835 348.323C339.15 314.764 346.179 299.595 346.831 260.207C347.443 259.8 348.255 259.897 349.035 259.879Z"/><path fill="#C2C3C8" transform="scale(2 2)" d="M97.2708 343.249C100.913 343.526 109.182 343.258 113.206 343.256L146.992 343.242C157.215 343.24 166.484 340.943 173.204 349.475C170.829 357.095 170.559 360.969 171.051 368.751C165.073 372.637 160.065 377.845 158.383 384.926C156.24 384.968 154.025 384.932 151.876 384.926L107.291 384.936C100.228 384.935 86.1678 385.496 78.9157 384.111C75.3211 383.424 78.0342 374.357 80.7352 372.59C82.7584 371.266 87.2841 368.52 88.628 366.286C90.6009 362.432 81.8104 347.288 97.2708 343.249Z"/><path fill="#C2C3C8" transform="scale(2 2)" d="M129.408 181.848C150.447 178.202 169.295 207.47 151.545 226.015C149.778 227.862 147.744 229.465 145.889 231.236C146.342 234.869 147.38 239.08 148.155 242.728L133.625 242.728L113.067 242.728C114.105 238.897 115.147 235.1 116.066 231.236C114.256 229.431 112.416 227.645 110.755 225.736C96.3241 209.146 107.224 184.326 129.408 181.848Z"/><path fill="#C2C3C8" transform="scale(2 2)" d="M121.503 270.757L140.476 270.757C140.336 291.748 144.067 315.261 155.252 333.237L140.476 333.237L106.988 333.237C118.745 310.568 121.553 295.698 121.503 270.757Z"/><path fill="#FEC33C" transform="scale(2 2)" d="M329.052 238.301C337.097 238.272 391.378 237.641 394.299 238.939C399.919 241.439 397.926 248.38 392.896 250.036C390.079 250.277 386.763 250.092 383.88 250.063L331.502 250.044C325.497 250.04 323.521 247.573 323.767 241.536C325.295 239.65 326.718 238.801 329.052 238.301Z"/><path fill="#C2C3C8" transform="scale(2 2)" d="M108.872 252.68L138.078 252.673C143.051 252.673 148.039 252.581 153.005 252.806C158.869 253.072 159.58 259.562 153.623 260.678C146.543 260.679 109.63 261.405 106.268 259.899C102.025 257.999 105.772 253.328 108.872 252.68Z"/><path fill="#FEC33C" transform="scale(2 2)" d="M358.977 95.3463C363.792 94.3865 368.48 97.4884 369.48 102.295C370.479 107.102 367.416 111.816 362.618 112.855C357.763 113.907 352.982 110.8 351.97 105.936C350.959 101.073 354.105 96.3174 358.977 95.3463Z"/><path fill="#FEC33C" transform="scale(2 2)" d="M357.942 123.523L363.408 123.523C363.784 125.076 365.449 131.103 365.048 132.277L364.44 132.266C361.872 132.164 358.706 132.254 356.089 132.266C356.59 129.269 357.103 126.45 357.942 123.523Z"/></svg>